<svg xmlns="http://www.w3.org/2000/svg" viewBox="0 0 500 500"><defs><style>.cls-1{fill:#fff;}.cls-2{fill:#e86776;}.cls-3,.cls-7{fill:#e8505b;}.cls-4,.cls-6{fill:#263238;}.cls-5{fill:#e4e4e4;}.cls-6{font-size:16.01px;font-family:Montserrat-Regular, Montserrat;}.cls-7{font-size:48.03px;font-family:Montserrat-Black, Montserrat Black;font-weight:800;}.cls-8{letter-spacing:-0.04em;}.cls-9{letter-spacing:-0.01em;}</style></defs><title>4115177</title><g id="Background"><rect class="cls-1" width="500" height="500"/></g><g id="Objects"><circle class="cls-2" cx="250" cy="229.68" r="136.08" transform="translate(-22.8 431.75) rotate(-79.1)"/><circle class="cls-3" cx="250" cy="229.68" r="74.33" transform="translate(-16.81 439.59) rotate(-80.77)"/><path class="cls-1" d="M250,365.76A136.08,136.08,0,0,0,370.68,292.6a14.25,14.25,0,0,0-20.38,10.69,27.61,27.61,0,0,0-33.93-5,14.92,14.92,0,0,0,.12-1.78A14.67,14.67,0,0,0,292,285.61,44.84,44.84,0,0,0,206,281.83,31.87,31.87,0,0,0,167.27,313c0,.11,0,.21,0,.32a25.38,25.38,0,0,0-9.44-2.05,27.61,27.61,0,0,0-31.38-24.47A136.09,136.09,0,0,0,250,365.76Z"/><path class="cls-4" d="M305.2,238.84s-2.54-6.06-3.32-8.51-2.44-7.12-1.14-6.94,14.41,14.27,14.41,14.27Z"/><path class="cls-4" d="M304,230.66c.62,2.27,2.68,7.86,2.68,7.86l8.15-1.26c-1.67-1.79-8.58-9.14-12.08-12.36A27.83,27.83,0,0,0,304,230.66Z"/><path class="cls-4" d="M229.59,216.16s16.75-16.83,20.63-20.94,5.48-7.92,11.68-8.5,6.94-1.13,5.84,2-11,37.11-11,37.11Z"/><path class="cls-4" d="M234.22,217.76s15.1-17.4,18.61-21.64,5.06-8.06,10.35-9,5.95-1.48,4.85,1.68-11.25,37-11.25,37Z"/><path class="cls-5" d="M308.78,259.18c-31.84-2.66-138.15-33.47-138.15-33.47s-25.38-8-21.64-17.05c5.21-12.66,30.59-8.76,30.59-8.76l73.91,21.28L341,248s8.87,1.17,6.92,6.77C346.6,258.67,330.15,261,308.78,259.18Z"/><path class="cls-1" d="M308.78,259.18c20.54,1.72,36.52-.34,38.94-4,.75-4.64-6.83-5.64-6.83-5.64l-83.68-25.64L186.56,203.6s-24.26-3.72-29.24,8.37c-2.46,6,8.31,11.47,15.23,14.29C187,230.42,279.47,256.73,308.78,259.18Z"/><path class="cls-4" d="M226.54,239.11s21.62,25,36.54,37.77,15.87,15.6,29.31,22.45,22,9,22.89,7.94-45.23-60.7-45.23-60.7Z"/><path class="cls-4" d="M235,241.41s19.84,22.91,33.53,34.67,14.56,14.31,26.9,20.59c8.16,4.16,14.34,6.42,17.84,7.2-8-11.67-37.35-49.71-42.45-56.32Z"/><path class="cls-4" d="M298.78,236.89s11-1.09,16.25-2.82,14.85-7.39,18.81-11.75,5.62-6,10.53-7.53,11.54-4.18,13.13-.9-18.85,35.47-18.85,35.47Z"/><path class="cls-4" d="M338.65,249.36s14.06-22.15,18-31.58a2.5,2.5,0,0,0,.09-1.37c-1.3-3.1-7.24-.4-11.62,1.26s-5.89,3.26-9.52,7.56-12.29,10-17,11.86a65.72,65.72,0,0,1-10.79,2.62Z"/><path class="cls-4" d="M316.58,254.79A41.91,41.91,0,0,0,330.75,269c7.43,4.32,15.46,8.91,18.64,8.37s-16.84-23-16.84-23Z"/><path class="cls-4" d="M320.68,255.58a37.36,37.36,0,0,0,12.65,12.67c6.22,3.61,12.9,7.43,16.05,7.52-2.07-4.5-13-17.13-16.05-20.56Z"/><rect class="cls-4" x="187.55" y="211.89" width="6.7" height="5.15" rx="1.14" transform="translate(-74.29 324.52) rotate(-70.87)"/><rect class="cls-4" x="198.03" y="214.71" width="6.7" height="5.15" rx="1.14" transform="translate(-69.91 336.32) rotate(-70.87)"/><rect class="cls-4" x="208.51" y="217.52" width="6.7" height="5.15" rx="1.14" transform="translate(-65.53 348.1) rotate(-70.86)"/><rect class="cls-4" x="218.5" y="220.17" width="6.7" height="5.15" rx="1.14" transform="translate(-61.31 359.33) rotate(-70.87)"/><rect class="cls-4" x="229.47" y="223.16" width="6.7" height="5.15" rx="1.14" transform="translate(-56.75 371.71) rotate(-70.87)"/><path class="cls-4" d="M153.31,203.46c7.38,2.87,17.14,6.61,19,7,3,.65,4.41-.32,3.22-2.77s-6.08-3.13-10.46-4.66c-2-.67-4-1.55-5.68-2.31A20.06,20.06,0,0,0,153.31,203.46Z"/><path class="cls-4" d="M287.08,247.43l-4-.65,10.32,10.14c1.4.26,2.74.5,4,.72Z"/><path class="cls-4" d="M296.29,250.76l-4.21-.86,8.37,8.23c1.36.22,2.66.4,3.88.56Z"/><path class="cls-4" d="M305.05,253.8l-4-.77,6.11,6,1.58.15,2,.16Z"/><text class="cls-6" transform="translate(176.3 408.38)"><tspan xml:space="preserve">F L Y   W I T H   U S</tspan></text><text class="cls-7" transform="translate(102.49 382.94)">TR<tspan class="cls-8" x="67.19" y="0">A</tspan><tspan class="cls-9" x="103.98" y="0">V</tspan><tspan x="141" y="0">EL GO</tspan></text></g></svg>